<?xml version="1.0" encoding="utf-8"?>
<!-- Generator: Adobe Illustrator 24.1.1, SVG Export Plug-In . SVG Version: 6.00 Build 0)  -->
<svg version="1.1" id="Layer_1" xmlns="http://www.w3.org/2000/svg" xmlns:xlink="http://www.w3.org/1999/xlink" x="0px" y="0px"
	 viewBox="0 0 792 612" style="enable-background:new 0 0 792 612;" xml:space="preserve">
<g>
	<path d="M426.2,428.9c-45.6,0-91.2,0-136.8,0c-28.8,0-53.4-18.1-63-44.1c-2.7-7.3-4.2-15.2-5.7-22.9c-4.2-20.8-8.1-41.6-12-62.4
		c-3-16-5.9-31.9-9-47.9c-3.8-19.7-7.7-39.3-11.5-59c-3-15.7-6-31.5-8.9-47.2c-2.1-11.1-4.2-22.3-6.4-33.4c-1-4.8-4-6.9-10.4-6.9
		c-13.2-0.1-26.3,0.2-39.5-0.1c-3.9-0.1-8-0.8-11.6-2.3c-9.7-4-14.7-16.8-11.4-26.9c3.3-10.1,11.9-15.7,22.5-15.8
		c14.3-0.2,28.6-0.4,42.9,0c19.7,0.6,35.4,9,45.7,26.3c2,3.3,4.1,4.5,7.9,4.5c129.5-0.1,259.1-0.1,388.6,0c13.9,0,25.3,5.4,33.4,17
		c6.9,10,7.9,21.1,5,32.5c-3.6,14.4-7.7,28.7-11.5,43.1c-2.5,9.3-5.1,18.5-7.6,27.8c-3.7,13.8-7.2,27.7-11,41.4
		c-3.7,13.4-7.1,27-11.5,40.2c-4.8,14.3-14.8,24.8-27.4,32.9c-10.8,7-22.7,10.6-35.6,10.6c-90.7,0-181.4,0-272.2,0
		c-1.4,0-2.9-0.3-4.1,0.2c-1,0.4-2.4,1.8-2.2,2.6c1.8,10,3.2,20.2,6.2,29.8c2.3,7.5,8.4,12.5,16.7,13.4c5.9,0.7,11.8,1.3,17.7,1.3
		c87.6,0.1,175.2,0.1,262.9,0c7.8,0,14.8,1.9,19.5,8.6c8.2,11.7,4.9,27.6-7.7,33.8c-3.7,1.8-8.1,2.6-12.2,2.6
		C519.4,429,472.8,428.9,426.2,428.9z M412.4,135.9c-59.6,0-119.1,0-178.7,0c-1.9,0-3.9-0.1-5.8,0c-3.4,0.1-4,1-3.4,4.3
		c1.7,8.2,3.3,16.4,4.9,24.6c4.1,21.2,8.3,42.4,12.4,63.7c3.7,19.4,7.4,38.9,11,58.3c0.6,3.4,2.1,4.9,5.7,4.9
		c9.4-0.2,18.8-0.1,28.2-0.1c82.7,0,165.4,0,248-0.1c4.9,0,10.1-0.9,14.7-2.6c7.7-2.8,11.5-9.4,13.5-17.1c2.3-8.7,4.7-17.5,7.1-26.2
		c4.4-16,8.9-32,13.3-48c5.1-18.6,10.1-37.3,15.2-56c1.5-5.3,1.2-5.8-4.2-5.8C533.8,135.9,473.1,135.9,412.4,135.9z"/>
	<path d="M267.4,460.4c24.7,0.6,45.9,18.2,46.1,45.5c0.2,27.5-20.8,45.6-45.1,46c-24.8,0.4-46.3-18.8-46.4-45.4
		C221.8,479.6,243.1,461.1,267.4,460.4z"/>
	<path d="M544.8,552.1c-26.5,0-45.6-20.8-45.6-45.9c0-24.9,19-46.1,46-45.8c26.1,0.3,45.2,20,45.2,45.8
		C590.4,532,571.4,551.9,544.8,552.1z"/>
</g>
</svg>
