<?xml version="1.0" encoding="utf-8"?>
<!-- Generator: Adobe Illustrator 24.1.1, SVG Export Plug-In . SVG Version: 6.00 Build 0)  -->
<svg version="1.1" id="Layer_1" xmlns="http://www.w3.org/2000/svg" xmlns:xlink="http://www.w3.org/1999/xlink" x="0px" y="0px"
	 viewBox="0 0 792 612" style="enable-background:new 0 0 792 612;" xml:space="preserve">
<g>
	<path d="M163.9,467.5c5.8-25.2,11.6-50.2,17.4-75.3c3,0,5.9,0,8.7,0c0.5,0,1,0.3,1.4,0.5c6.8,2.4,13.6,4.9,20.4,7.3
		c6.1,2.1,12.4,3.1,18.7,3.6c7.1,0.6,14.2,0.7,21.3,0.3c10-0.6,19.7-2.2,29.1-5.8c11.7-4.5,20.9-11.9,27.6-22.5
		c5.1-8.1,9-16.8,12.2-25.8c4.1-11.4,7.1-23,9.8-34.8c5.2-22.6,10.4-45.3,15.7-67.9c5.4-23.3,10.8-46.6,16.2-69.9
		c0.4-1.5,0.7-3.1,1.1-4.8c-4.7-0.2-9.2-0.1-13.8-0.1c-4.6,0-9.3,0-13.9,0c-4.6,0-9.1,0-13.7,0c-4.6,0-9.1,0-13.7,0
		c-4.6,0-9.3,0-13.9,0c-4.6,0-9.1,0-14,0c5.2-22.5,10.3-44.7,15.4-66.9c59.2,0,118.2,0,177.4,0c-9.8,42.5-19.7,84.9-29.5,127.4
		c-24.6,0-49.1,0-73.9,0c0.4,0.8,0.6,1.4,0.9,2c9.6,19.8,19.1,39.5,28.7,59.3c6.5,13.5,13.1,27,19.6,40.5c0.4,0.9,0.7,1.7,0.5,2.7
		c-2.2,9.3-4.3,18.7-7,27.9c-0.7,2.3-1.8,4.3-3.5,6c-20.8,21.6-41.5,43.2-62.2,64.8c-8.8,9.2-17.7,18.4-26.5,27.6
		c-0.8,0.8-1.6,1.3-2.7,1.7c-10.2,3.1-20.5,5.3-31.1,6.7c-15.9,2.3-31.8,2.7-47.8,2.4c-8.1-0.2-16.1-0.4-24.2-0.8
		c-6.4-0.3-12.8-0.9-19.2-1.6c-7.2-0.8-14.4-1.8-21.7-2.8C170.5,468.8,167.3,468.1,163.9,467.5z"/>
	<path d="M328.9,468.2c0.5-0.6,0.9-1,1.2-1.3c23.1-23.8,46.2-47.7,69.4-71.5c26.8-27.6,53.6-55.2,80.3-82.8
		c22.3-22.9,44.5-45.9,66.8-68.8c0.7-0.7,1.3-1.1,2.3-1.1c21.7,0,43.5,0,65.2,0c0.4,0,0.8,0,1.6,0c-0.6,0.7-1,1.1-1.4,1.6
		c-10.3,10.7-20.7,21.3-31,32c-26.9,27.7-53.8,55.5-80.7,83.2c-32.1,33.1-64.3,66.2-96.4,99.3c-2.8,2.9-5.6,5.7-8.4,8.6
		c-0.6,0.6-1.1,0.9-2,0.9c-22,0-43.9,0-65.9,0C329.7,468.3,329.5,468.2,328.9,468.2z"/>
	<path d="M562.4,468.2c-21.6,0-43,0-64.5,0c-9.7-19.5-19.4-39-29.3-58.7c14.2-14.6,28.3-29.1,42.7-43.8
		C528.4,400,545.4,434,562.4,468.2z"/>
	<path d="M435.7,343.5c-16.8-33.7-33.5-67.1-50.2-100.7c0.7,0,1.1-0.1,1.5-0.1c20.5,0,41,0,61.5,0c1.1,0,1.7,0.4,2.2,1.4
		c8.9,18,17.9,35.9,26.9,53.9c0.2,0.4,0.4,0.8,0.6,1.4C464,313.9,450,328.6,435.7,343.5z"/>
</g>
</svg>
